HIERARCHY
ROOT joint_Root
{
	OFFSET 0.0 0.0 0.0
	CHANNELS 6 Xposition Yposition Zposition Zrotation Xrotation Yrotation 
	JOINT Hips
	{
		OFFSET 4.5925 91.4895 -427.239
		CHANNELS 6 Xposition Yposition Zposition Zrotation Xrotation Yrotation 
		JOINT Spine
		{
			OFFSET 15.7357 0.0 0.0
			CHANNELS 6 Xposition Yposition Zposition Zrotation Xrotation Yrotation 
			JOINT Chest
			{
				OFFSET 8.98455 -0.406207 0.0
				CHANNELS 6 Xposition Yposition Zposition Zrotation Xrotation Yrotation 
				JOINT Neck
				{
					OFFSET 16.3773 0.0 0.0
					CHANNELS 6 Xposition Yposition Zposition Zrotation Xrotation Yrotation 
					JOINT Head
					{
						OFFSET 6.45672 0.0 0.0
						CHANNELS 6 Xposition Yposition Zposition Zrotation Xrotation Yrotation 
						End Site
						{
							OFFSET 0.0 0.0 0.0
						}
					}
				}
				JOINT Shoulder_L
				{
					OFFSET 12.9942 -0.242716 4.98039
					CHANNELS 6 Xposition Yposition Zposition Zrotation Xrotation Yrotation 
					JOINT UpperArm_L
					{
						OFFSET 5.34809 0.0 0.0
						CHANNELS 6 Xposition Yposition Zposition Zrotation Xrotation Yrotation 
						JOINT LowerArm_L
						{
							OFFSET 24.3286 1.87007e-05 0.0
							CHANNELS 6 Xposition Yposition Zposition Zrotation Xrotation Yrotation 
							JOINT Hand_L
							{
								OFFSET 22.2916 0.0 0.0
								CHANNELS 6 Xposition Yposition Zposition Zrotation Xrotation Yrotation 
								End Site
								{
									OFFSET 0.0 0.0 0.0
								}
							}
						}
					}
				}
				JOINT Shoulder_R
				{
					OFFSET 12.9945 -0.242716 -4.98039
					CHANNELS 6 Xposition Yposition Zposition Zrotation Xrotation Yrotation 
					JOINT UpperArm_R
					{
						OFFSET -5.34813 0.0 0.0
						CHANNELS 6 Xposition Yposition Zposition Zrotation Xrotation Yrotation 
						JOINT LowerArm_R
						{
							OFFSET -24.3289 0.000322201 0.0
							CHANNELS 6 Xposition Yposition Zposition Zrotation Xrotation Yrotation 
							JOINT Hand_R
							{
								OFFSET -22.2915 -0.000108084 0.0
								CHANNELS 6 Xposition Yposition Zposition Zrotation Xrotation Yrotation 
								End Site
								{
									OFFSET 0.0 0.0 0.0
								}
							}
						}
					}
				}
			}
		}
		JOINT UpperLeg_L
		{
			OFFSET -2.19248 -6.46944 0.0
			CHANNELS 6 Xposition Yposition Zposition Zrotation Xrotation Yrotation 
			JOINT LowerLeg_L
			{
				OFFSET 39.0811 0.0 -1.23785e-05
				CHANNELS 6 Xposition Yposition Zposition Zrotation Xrotation Yrotation 
				JOINT Foot_L
				{
					OFFSET 40.9854 0.0 -1.26872e-05
					CHANNELS 6 Xposition Yposition Zposition Zrotation Xrotation Yrotation 
					JOINT Toes_L
					{
						OFFSET 11.7543 0.0 0.0
						CHANNELS 6 Xposition Yposition Zposition Zrotation Xrotation Yrotation 
						End Site
						{
							OFFSET 0.0 0.0 0.0
						}
					}
				}
			}
		}
		JOINT UpperLeg_R
		{
			OFFSET -2.19251 6.46944 0.0
			CHANNELS 6 Xposition Yposition Zposition Zrotation Xrotation Yrotation 
			JOINT LowerLeg_R
			{
				OFFSET -39.0811 -0.00228153 -0.0401928
				CHANNELS 6 Xposition Yposition Zposition Zrotation Xrotation Yrotation 
				JOINT Foot_R
				{
					OFFSET -40.9854 0.0 0.0
					CHANNELS 6 Xposition Yposition Zposition Zrotation Xrotation Yrotation 
					JOINT Toes_R
					{
						OFFSET -11.7543 0.0 0.0
						CHANNELS 6 Xposition Yposition Zposition Zrotation Xrotation Yrotation 
						End Site
						{
							OFFSET 0.0 0.0 0.0
						}
					}
				}
			}
		}
	}
}
MOTION
Frames:	7
Frame Time:	0.0333333
0.000000 0.000000 0.000000 0.000000 0.000000 -0.000000 5.284490 90.999100 510.602000 -90.165900 3.070790 -179.853000 15.735700 0.000005 -0.000001 91.532100 85.074200 -91.193100 8.984550 -0.406207 -0.000000 2.081430 0.246413 0.672829 16.377300 -0.000001 -0.000001 -6.119710 0.034105 2.968450 6.456720 -0.000001 -0.000000 -14.818600 0.011413 11.348700 12.994200 -0.242716 4.980390 -90.457900 1.701120 -74.933300 5.348090 -0.000007 -0.000001 -76.845100 21.971000 2.882100 24.328600 0.000019 0.000005 11.376000 24.948200 -25.503300 22.291600 -0.000001 0.000005 9.046250 5.288350 0.397019 12.994500 -0.242716 -4.980390 88.488500 9.456520 -80.876400 -5.348130 -0.000001 -0.000004 -56.229100 22.176100 -15.203100 -24.328900 0.000322 -0.000009 2.044470 4.164410 -26.191200 -22.291500 -0.000108 -0.000004 16.540200 5.411280 -3.307380 -2.192480 -6.469440 -0.000000 -174.931000 -9.214820 -22.747800 39.081100 -0.000007 -0.000012 0.079045 -0.060356 52.634200 40.985400 -0.000006 -0.000013 4.013880 -10.022500 -61.171800 11.754300 -0.000000 0.000003 -0.002947 -0.040003 -18.203600 -2.192510 6.469440 -0.000001 172.418000 31.057700 -178.232000 -39.081100 -0.002282 -0.040193 -0.162220 0.401626 22.400000 -40.985400 0.000008 0.000006 -0.861970 12.739200 -71.270300 -11.754300 -0.000006 -0.000006 -0.000225 -0.003701 -16.724200
0.000000 0.000000 0.000000 0.000000 0.000000 -0.000000 5.398410 90.863400 509.034000 -90.327200 2.732590 179.564000 15.735700 0.000005 -0.000001 96.550100 85.049600 -96.608600 8.984550 -0.406207 -0.000000 2.071100 1.131550 -0.137409 16.377300 -0.000001 -0.000001 -6.573760 0.019339 2.771860 6.456720 -0.000001 -0.000000 -15.136800 -0.497364 10.917300 12.994200 -0.242716 4.980390 -90.485200 1.738380 -74.402700 5.348090 -0.000007 -0.000001 -77.383900 19.343700 4.279280 24.328600 0.000019 0.000005 10.542200 28.618700 -21.235500 22.291600 -0.000001 0.000005 9.134670 5.226850 2.033990 12.994500 -0.242716 -4.980390 88.691100 8.906540 -81.605100 -5.348130 -0.000001 -0.000004 -54.141600 20.759500 -18.302000 -24.328900 0.000322 -0.000009 1.713200 3.253880 -27.803800 -22.291500 -0.000108 -0.000004 17.094400 5.410100 -3.268580 -2.192480 -6.469440 -0.000000 -175.605000 -10.494100 -24.528100 39.081100 -0.000007 -0.000012 0.061236 -0.061467 44.890600 40.985400 -0.000006 -0.000013 2.453760 -6.468490 -61.587600 11.754300 -0.000000 0.000003 -0.001830 -0.026573 -17.657300 -2.192510 6.469440 -0.000001 171.331000 33.086700 -176.465000 -39.081100 -0.002282 -0.040193 -0.173437 0.460790 20.986800 -40.985400 0.000008 0.000006 -1.066210 14.678900 -71.577100 -11.754300 -0.000006 -0.000006 -0.000642 -0.010191 -16.987800
0.000000 0.000000 0.000000 0.000000 0.000000 -0.000000 5.477030 90.568400 507.355000 -90.247300 2.441740 178.811000 15.735700 0.000005 -0.000001 100.663000 85.047300 -101.069000 8.984550 -0.406207 -0.000000 1.976030 1.852160 -0.843384 16.377300 -0.000001 -0.000001 -6.828630 -0.025617 2.437190 6.456720 -0.000001 -0.000000 -15.651800 -1.246690 10.587900 12.994200 -0.242716 4.980390 -90.436700 1.483010 -73.589900 5.348090 -0.000007 -0.000001 -77.445400 16.181100 5.132420 24.328600 0.000019 0.000005 9.473450 32.675200 -17.177800 22.291600 -0.000001 0.000005 8.948230 5.157400 3.766500 12.994500 -0.242716 -4.980390 88.868300 8.261600 -82.172500 -5.348130 -0.000001 -0.000004 -52.687400 19.015300 -21.065800 -24.328900 0.000322 -0.000009 1.780200 3.286400 -28.478700 -22.291500 -0.000108 -0.000004 17.722100 5.416630 -3.486300 -2.192480 -6.469440 -0.000000 -176.064000 -11.204500 -25.303800 39.081100 -0.000007 -0.000012 0.038492 -0.055672 34.659200 40.985400 -0.000006 -0.000013 0.870019 -3.215290 -61.161200 11.754300 -0.000000 0.000003 -0.002289 -0.032277 -17.889300 -2.192510 6.469440 -0.000001 170.492000 35.045000 -175.069000 -39.081100 -0.002282 -0.040193 -0.179875 0.499196 20.152500 -40.985400 0.000008 0.000006 -1.293880 16.545200 -72.183100 -11.754300 -0.000006 -0.000006 -0.001048 -0.016089 -17.227400
0.000000 0.000000 0.000000 0.000000 0.000000 -0.000000 5.381900 90.065300 505.435000 -90.224400 2.909790 178.105000 15.735700 0.000005 -0.000001 106.170000 84.987000 -106.951000 8.984550 -0.406207 -0.000000 1.885400 2.830460 -1.606470 16.377300 -0.000001 -0.000001 -7.005710 -0.008078 2.068020 6.456720 -0.000001 -0.000000 -16.010900 -1.879540 9.949310 12.994200 -0.242716 4.980390 -90.406500 1.314540 -72.816900 5.348090 -0.000007 -0.000001 -76.905000 12.734500 6.105500 24.328600 0.000019 0.000005 8.412500 35.407500 -14.319200 22.291600 -0.000001 0.000005 8.571630 5.057700 6.066510 12.994500 -0.242716 -4.980390 89.024600 7.741440 -82.796600 -5.348130 -0.000001 -0.000004 -51.360900 17.411500 -23.162200 -24.328900 0.000322 -0.000009 2.175690 3.931300 -29.004100 -22.291500 -0.000108 -0.000004 18.371700 5.420130 -3.603400 -2.192480 -6.469440 -0.000000 -175.603000 -10.803000 -26.895300 39.081100 -0.000007 -0.000012 -0.038830 0.079550 26.017900 40.985400 -0.000006 -0.000013 -4.174570 0.904985 -56.224500 11.754300 -0.000000 0.000003 -0.002132 -0.030357 -17.811200 -2.192510 6.469440 -0.000001 169.804000 34.891700 -174.351000 -39.081100 -0.002282 -0.040193 -0.204872 0.561435 20.346300 -40.985400 0.000008 0.000006 -1.801760 17.055000 -73.365400 -11.754300 -0.000006 -0.000006 -0.001116 -0.017037 -17.266000
0.000000 0.000000 0.000000 0.000000 0.000000 -0.000000 5.029020 89.542400 503.254000 -90.753900 3.755350 177.378000 15.735700 0.000005 -0.000001 109.956000 84.852700 -111.321000 8.984550 -0.406207 -0.000000 1.958340 3.580530 -2.789650 16.377300 -0.000001 -0.000001 -7.181500 0.268906 1.662800 6.456720 -0.000001 -0.000000 -16.671600 -2.433730 9.459030 12.994200 -0.242716 4.980390 -90.508900 1.573200 -72.074200 5.348090 -0.000007 -0.000001 -75.611500 9.388950 7.050860 24.328600 0.000019 0.000005 7.537360 36.173600 -12.635300 22.291600 -0.000001 0.000005 8.357530 4.998090 7.359590 12.994500 -0.242716 -4.980390 89.087100 7.950460 -83.428600 -5.348130 -0.000001 -0.000004 -49.467500 16.054400 -25.412200 -24.328900 0.000322 -0.000009 2.324680 4.168250 -29.195100 -22.291500 -0.000108 -0.000004 18.627700 5.419570 -3.584600 -2.192480 -6.469440 -0.000000 -175.579000 -8.461570 -28.536400 39.081100 -0.000007 -0.000012 0.004356 -0.011428 20.866800 40.985400 -0.000006 -0.000013 -5.240910 3.982580 -51.577700 11.754300 -0.000000 0.000003 -0.001345 -0.020194 -17.398000 -2.192510 6.469440 -0.000001 168.679000 33.524300 -173.783000 -39.081100 -0.002282 -0.040193 -0.205702 0.559456 20.486900 -40.985400 0.000008 0.000006 -2.422950 16.615500 -74.629400 -11.754300 -0.000006 -0.000006 -0.001154 -0.017574 -17.287800
0.000000 0.000000 0.000000 0.000000 0.000000 -0.000000 4.439250 88.863800 500.426000 -91.414600 5.082280 177.159000 15.735700 0.000005 -0.000001 112.782000 84.537800 -114.790000 8.984550 -0.406207 -0.000000 2.391340 4.321110 -4.103020 16.377300 -0.000001 -0.000001 -7.181560 0.488882 1.217100 6.456720 -0.000001 -0.000000 -17.214700 -2.727290 9.031560 12.994200 -0.242716 4.980390 -90.662800 1.986560 -71.546700 5.348090 -0.000007 -0.000001 -74.135000 7.448030 7.844300 24.328600 0.000019 0.000005 6.862710 35.323700 -11.758200 22.291600 -0.000001 0.000005 8.326170 4.976260 7.820240 12.994500 -0.242716 -4.980390 89.118000 8.302860 -83.915000 -5.348130 -0.000001 -0.000004 -47.709800 15.310100 -27.651300 -24.328900 0.000322 -0.000009 2.071350 3.750960 -28.948400 -22.291500 -0.000108 -0.000004 19.137100 5.420950 -3.630370 -2.192480 -6.469440 -0.000000 -176.341000 -8.197590 -30.516200 39.081100 -0.000007 -0.000012 -0.001824 0.004167 23.644300 40.985400 -0.000006 -0.000013 -5.202830 6.427840 -48.851100 11.754300 -0.000000 0.000003 -0.001456 -0.021687 -17.458600 -2.192510 6.469440 -0.000001 167.140000 31.348400 -172.572000 -39.081100 -0.002282 -0.040193 -0.084896 0.230677 20.927900 -40.985400 0.000008 0.000006 -0.789624 15.250100 -77.091800 -11.754300 -0.000006 -0.000006 -0.001414 -0.021121 -17.432000
0.000000 0.000000 0.000000 0.000000 0.000000 -0.000000 3.657150 88.048400 497.002000 -91.762800 6.467900 177.711000 15.735700 0.000005 -0.000001 114.563000 84.135100 -117.071000 8.984550 -0.406207 -0.000000 3.026090 4.974840 -5.144810 16.377300 -0.000001 -0.000001 -6.884130 0.639487 0.805221 6.456720 -0.000001 -0.000000 -17.062000 -2.850950 8.491230 12.994200 -0.242716 4.980390 -90.883600 2.580670 -71.092300 5.348090 -0.000007 -0.000001 -72.623000 7.384440 8.524270 24.328600 0.000019 0.000005 6.596720 34.704800 -11.481600 22.291600 -0.000001 0.000005 8.744280 4.968860 7.974520 12.994500 -0.242716 -4.980390 89.105900 8.654000 -84.078700 -5.348130 -0.000001 -0.000004 -46.471500 15.336200 -29.220100 -24.328900 0.000322 -0.000009 1.680850 3.073740 -28.705500 -22.291500 -0.000108 -0.000004 19.397400 5.426040 -3.803840 -2.192480 -6.469440 -0.000000 -176.335000 -7.177940 -32.159100 39.081100 -0.000007 -0.000012 -0.060715 0.096113 32.281200 40.985400 -0.000006 -0.000013 -4.684990 4.722840 -52.404900 11.754300 -0.000000 0.000003 -0.000757 -0.011893 -17.060600 -2.192510 6.469440 -0.000001 165.051000 28.348400 -170.747000 -39.081100 -0.002282 -0.040193 -0.037883 0.101292 22.134000 -40.985400 0.000008 0.000006 -1.214620 14.285400 -77.474200 -11.754300 -0.000006 -0.000006 -0.159058 -0.223884 -18.511500
